<?xml version="1.0" encoding="UTF-8" standalone="no"?>
<svg width="153px" height="27px" viewBox="0 0 153 27" version="1.1" xmlns="http://www.w3.org/2000/svg" xmlns:xlink="http://www.w3.org/1999/xlink" xmlns:sketch="http://www.bohemiancoding.com/sketch/ns">
    <!-- Generator: Sketch 3.4.1 (15681) - http://www.bohemiancoding.com/sketch -->
    <title>logo</title>
    <desc>Created with Sketch.</desc>
    <defs></defs>
    <g id="首页" stroke="none" stroke-width="1" fill="none" fill-rule="evenodd" sketch:type="MSPage">
        <g id="Homepage-0.3" sketch:type="MSArtboardGroup" transform="translate(-77.000000, -15.000000)" fill="#FFFFFF">
            <g id="logo" sketch:type="MSLayerGroup" transform="translate(77.000000, 15.000000)">
                <path d="M40.7040855,0.303357273 C40.3892159,0.188484545 40.0612884,0.130311818 39.7294188,0.130311818 C38.5433609,0.130311818 37.4723609,0.876493636 37.0646072,1.98693 L31.0507957,18.3685664 C31.3664043,19.7629936 32.6172594,20.7661664 34.0570855,20.7661664 C34.6892884,20.7661664 35.2971,20.5774118 35.8144913,20.22003 C36.3193174,19.8712391 36.7048971,19.3872027 36.9298391,18.8204482 L42.3942304,3.92896636 C42.6546507,3.21984818 42.622129,2.45231182 42.3028246,1.76749364 C41.9835203,1.08267545 41.4158681,0.562557273 40.7040855,0.303357273" id="Fill-1" sketch:type="MSShapeGroup"></path>
                <path d="M4.28183188,15.0692155 L3.0736,10.9679155 C2.88117971,10.3147609 2.27016522,9.85846091 1.58770145,9.85846091 C1.44061449,9.85846091 1.29377391,9.87957 1.15112174,9.92129727 C0.331426087,10.1606155 -0.139892754,11.0199518 0.100324638,11.8365791 C0.583469565,13.4735155 1.75696232,17.4434973 1.75696232,17.4434973 C2.08242609,18.6845155 3.21009275,19.5512155 4.49938261,19.5512155 C5.61103478,19.5512155 6.62438261,18.8997791 7.08288986,17.8907155 C7.15015072,17.72307 7.3746,17.1634336 7.61432464,16.5652609 C7.29304928,16.7194064 6.94048406,16.79967 6.57978841,16.79967 C5.51617971,16.79967 4.57132464,16.0880973 4.28183188,15.0692155" id="Fill-3" sketch:type="MSShapeGroup"></path>
                <path d="M21.8584275,9.24281182 C22.127471,8.53909364 22.5980507,7.93748455 23.2189203,7.50327545 C23.8545725,7.05875727 24.6023261,6.82385727 25.3816159,6.82385727 C26.169529,6.82385727 26.9244275,7.06366636 27.5645145,7.51726636 C27.695587,7.61029364 27.8200072,7.71093 27.9370362,7.81819364 L27.5913696,6.35356636 C27.3681522,5.30793 26.7852246,4.35654818 25.9500072,3.67492091 C25.1034565,2.98396636 24.033442,2.60326636 22.9368188,2.60326636 C20.9113551,2.60326636 19.1044275,3.88331182 18.4401957,5.78828455 L18.4350217,5.80252091 C18.3182391,6.12431182 15.0443841,15.2579209 14.666442,16.3126391 C14.9145435,17.3820845 15.8786159,18.1501118 16.989529,18.1501118 C17.954587,18.1501118 18.8176449,17.5774664 19.1901667,16.6908845 L21.8584275,9.24281182 Z" id="Fill-5" sketch:type="MSShapeGroup"></path>
                <path d="M36.1701362,20.7299618 C35.5477884,21.1599982 34.8172812,21.3872891 34.0572087,21.3872891 C33.1776435,21.3872891 32.324687,21.0753164 31.6555275,20.5085618 C30.9964696,19.9506436 30.551513,19.1789345 30.4024551,18.3350618 L28.2887884,9.37989818 C27.8049043,8.21718 26.6533391,7.44498 25.381542,7.44498 C24.7313536,7.44498 24.1072812,7.64085273 23.5770783,8.01148909 C23.0761942,8.36199818 22.6928319,8.84259818 22.4649333,9.40444364 L25.6508319,22.8877527 C26.097513,25.2021436 28.1414551,26.8820345 30.5108609,26.8820345 C32.6277304,26.8820345 34.5100493,25.5423436 35.1949768,23.5482709 L35.1962087,23.5487618 C35.2026145,23.5276527 36.2499623,20.6732618 36.2499623,20.6732618 C36.2236,20.6924073 36.1969913,20.7113073 36.1701362,20.7299618" id="Fill-7" sketch:type="MSShapeGroup"></path>
                <path d="M6.57986232,16.1785718 C7.25468841,16.1785718 7.8592971,15.8052355 8.16036957,15.2033809 C8.25916667,14.95719 9.50928261,11.8470355 9.50928261,11.8470355 C9.81922464,11.0922627 10.5482536,10.6045445 11.3667174,10.6045445 C11.6776449,10.6045445 11.9755145,10.6762173 12.2420942,10.8050809 L11.6162971,8.84439 C11.3600652,7.89227182 10.4893696,7.22733545 9.49868841,7.22733545 C8.68515217,7.22733545 7.94281884,7.67259 7.56068841,8.38980818 C7.36752899,8.76658091 5.76632609,12.81609 4.91139855,14.9944991 C5.15506522,15.6964991 5.82718116,16.1785718 6.57986232,16.1785718" id="Fill-9" sketch:type="MSShapeGroup"></path>
                <path d="M16.9895043,18.8430545 C15.559287,18.8430545 14.322229,17.8337455 14.0406203,16.4403 L12.6616493,12.1200545 C12.4620841,11.5871727 11.9478957,11.2256182 11.3666928,11.2256182 C10.8029826,11.2256182 10.3006203,11.5614 10.0867652,12.0812727 L8.9448087,14.9278091 C9.12441739,15.4943182 10.2690841,19.1044636 10.2690841,19.1044636 C10.7566638,20.9188636 12.4157652,22.1861455 14.303258,22.1861455 C16.0951565,22.1861455 17.6850261,21.0511636 18.2595768,19.3617 L18.2613014,19.3570364 L18.6146058,18.3703091 C18.1405768,18.6732 17.5803159,18.8430545 16.9895043,18.8430545" id="Fill-11" sketch:type="MSShapeGroup"></path>
                <path d="M47.0816478,19.5057818 C46.9761986,19.4250273 46.8707493,19.2637636 46.8707493,19.0541455 C46.8707493,18.7637727 47.0964304,18.5217545 47.3827203,18.5217545 C47.4881696,18.5217545 47.5936188,18.5539091 47.6690101,18.6184636 C48.4670246,19.1992091 49.2953435,19.5057818 50.1386913,19.5057818 C51.0724594,19.5057818 51.7499957,18.9895909 51.7499957,18.1827818 L51.7499957,18.1506273 C51.7499957,17.3119091 50.8312565,16.9893818 49.8073145,16.6828091 C48.5875029,16.3116818 47.2321841,15.8600455 47.2321841,14.3276727 L47.2321841,14.2952727 C47.2321841,12.8598545 48.3465464,11.9079818 49.8827058,11.9079818 C50.7110246,11.9079818 51.6144884,12.1821545 52.3674159,12.6178364 C52.5181986,12.7145455 52.6537058,12.8920091 52.6537058,13.1340273 C52.6537058,13.4244 52.4275319,13.6664182 52.1414884,13.6664182 C52.0362855,13.6664182 51.9458652,13.6340182 51.8855029,13.6018636 C51.2229957,13.1985818 50.5151551,12.9565636 49.8524014,12.9565636 C48.9339087,12.9565636 48.3465464,13.4727545 48.3465464,14.1664091 L48.3465464,14.1985636 C48.3465464,14.9891727 49.3103725,15.2955 50.3493435,15.6344727 C51.5543725,16.0215545 52.849329,16.5215455 52.849329,18.0217636 L52.849329,18.0539182 C52.849329,19.6346455 51.6295174,20.5543636 50.078329,20.5543636 C49.054387,20.5543636 47.9247493,20.1508364 47.0816478,19.5057818" id="Fill-13" sketch:type="MSShapeGroup"></path>
                <path d="M55.0026623,9.16573909 C55.0026623,8.82701182 55.2586478,8.53663909 55.5747493,8.53663909 C55.9061261,8.53663909 56.162358,8.82701182 56.162358,9.16573909 L56.162358,13.5048845 C56.674329,12.6018573 57.4873725,11.8758027 58.8276623,11.8758027 C60.7102275,11.8758027 61.8095609,13.2307118 61.8095609,15.2149664 L61.8095609,19.8444845 C61.8095609,20.1991664 61.5535754,20.4735845 61.2372275,20.4735845 C60.9058507,20.4735845 60.6501116,20.1991664 60.6501116,19.8444845 L60.6501116,15.5212936 C60.6501116,13.9727209 59.8668797,13.0048936 58.4965319,13.0048936 C57.156242,13.0048936 56.162358,14.0534755 56.162358,15.6182482 L56.162358,19.8444845 C56.162358,20.1991664 55.9211551,20.4735845 55.5900246,20.4735845 C55.2586478,20.4735845 55.0026623,20.1991664 55.0026623,19.8444845 L55.0026623,9.16573909 Z" id="Fill-15" sketch:type="MSShapeGroup"></path>
                <path d="M69.9867826,15.7633364 C69.8663043,14.2469182 69.0530145,12.9244091 67.5020725,12.9244091 C66.1465072,12.9244091 65.1225652,14.1342545 64.972029,15.7633364 L69.9867826,15.7633364 Z M67.6826667,20.5865182 C65.5443623,20.5865182 63.7973043,18.8283273 63.7973043,16.2473727 L63.7973043,16.2149727 C63.7973043,13.8114818 65.3785507,11.8758273 67.5321304,11.8758273 C69.8362464,11.8758273 71.1464783,13.8922364 71.1464783,16.1020636 C71.1464783,16.4407909 70.8904928,16.6828091 70.6044493,16.6828091 L64.972029,16.6828091 C65.1378406,18.4896 66.3273478,19.5057818 67.712971,19.5057818 C68.6767971,19.5057818 69.3843913,19.1025 69.9567246,18.5379545 C70.0471449,18.4572 70.1523478,18.3926455 70.2881014,18.3926455 C70.5741449,18.3926455 70.8000725,18.6346636 70.8000725,18.9250364 C70.8000725,19.0701 70.7399565,19.2151636 70.6192319,19.3283182 C69.8813333,20.0865273 69.0079275,20.5865182 67.6826667,20.5865182 L67.6826667,20.5865182 Z" id="Fill-17" sketch:type="MSShapeGroup"></path>
                <path d="M73.1942638,12.6017345 C73.1942638,12.2627618 73.4502493,11.9726345 73.7663507,11.9726345 C74.0977275,11.9726345 74.3539594,12.2468073 74.3539594,12.6017345 L74.3539594,13.5050073 C74.8659304,12.6017345 75.6789739,11.8759255 77.0192638,11.8759255 C78.901829,11.8759255 80.0011623,13.2308345 80.0011623,15.2148436 L80.0011623,19.8443618 C80.0011623,20.1992891 79.7451768,20.4734618 79.428829,20.4734618 C79.0974522,20.4734618 78.841713,20.1992891 78.841713,19.8443618 L78.841713,15.5214164 C78.841713,13.9728436 78.0584812,13.0050164 76.6881333,13.0050164 C75.3478435,13.0050164 74.3539594,14.0533527 74.3539594,15.6183709 L74.3539594,19.8443618 C74.3539594,20.1992891 74.1127565,20.4734618 73.7816261,20.4734618 C73.4502493,20.4734618 73.1942638,20.1992891 73.1942638,19.8443618 L73.1942638,12.6017345 Z" id="Fill-19" sketch:type="MSShapeGroup"></path>
                <path d="M82.0191362,19.8928391 L82.0191362,19.8606845 C82.0191362,19.6508209 82.0942812,19.4895573 82.2600928,19.2961391 L87.1846725,13.1018482 L82.6365565,13.1018482 C82.365542,13.1018482 82.1396145,12.87603 82.1396145,12.5856573 C82.1396145,12.2952845 82.365542,12.0532664 82.6365565,12.0532664 L88.1933391,12.0532664 C88.509687,12.0532664 88.7506435,12.2790845 88.7506435,12.5535027 L88.7506435,12.5856573 C88.7506435,12.7952755 88.6752522,12.9565391 88.509687,13.1502027 L83.5853536,19.3444936 L88.3288464,19.3444936 C88.6001072,19.3444936 88.8260348,19.5862664 88.8260348,19.8606845 C88.8260348,20.1508118 88.6001072,20.39283 88.3288464,20.39283 L82.5761942,20.39283 C82.2751217,20.39283 82.0191362,20.1670118 82.0191362,19.8928391" id="Fill-21" sketch:type="MSShapeGroup"></path>
                <path d="M90.8440333,9.16573909 C90.8440333,8.82701182 91.1000188,8.53663909 91.4161203,8.53663909 C91.7474971,8.53663909 92.003729,8.82701182 92.003729,9.16573909 L92.003729,13.5048845 C92.5157,12.6018573 93.3287435,11.8758027 94.6690333,11.8758027 C96.5515986,11.8758027 97.6509319,13.2307118 97.6509319,15.2149664 L97.6509319,19.8444845 C97.6509319,20.1991664 97.3949464,20.4735845 97.0785986,20.4735845 C96.7472217,20.4735845 96.4914826,20.1991664 96.4914826,19.8444845 L96.4914826,15.5212936 C96.4914826,13.9727209 95.7082507,13.0048936 94.3379029,13.0048936 C92.997613,13.0048936 92.003729,14.0534755 92.003729,15.6182482 L92.003729,19.8444845 C92.003729,20.1991664 91.7625261,20.4735845 91.4313957,20.4735845 C91.1000188,20.4735845 90.8440333,20.1991664 90.8440333,19.8444845 L90.8440333,9.16573909 Z" id="Fill-23" sketch:type="MSShapeGroup"></path>
                <path d="M105.827957,15.7633364 C105.707478,14.2469182 104.894188,12.9244091 103.343246,12.9244091 C101.987681,12.9244091 100.963739,14.1342545 100.813203,15.7633364 L105.827957,15.7633364 Z M103.523841,20.5865182 C101.385536,20.5865182 99.6384783,18.8283273 99.6384783,16.2473727 L99.6384783,16.2149727 C99.6384783,13.8114818 101.219725,11.8758273 103.373304,11.8758273 C105.67742,11.8758273 106.987652,13.8922364 106.987652,16.1020636 C106.987652,16.4407909 106.731667,16.6828091 106.445623,16.6828091 L100.813203,16.6828091 C100.979014,18.4896 102.168522,19.5057818 103.554145,19.5057818 C104.517971,19.5057818 105.225565,19.1025 105.797899,18.5379545 C105.888319,18.4572 105.993522,18.3926455 106.129275,18.3926455 C106.415319,18.3926455 106.641246,18.6346636 106.641246,18.9250364 C106.641246,19.0701 106.58113,19.2151636 106.460406,19.3283182 C105.722507,20.0865273 104.849101,20.5865182 103.523841,20.5865182 L103.523841,20.5865182 Z" id="Fill-25" sketch:type="MSShapeGroup"></path>
                <path d="M109.035635,12.6017345 C109.035635,12.2627618 109.29162,11.9726345 109.607722,11.9726345 C109.939099,11.9726345 110.19533,12.2468073 110.19533,12.6017345 L110.19533,13.5050073 C110.707301,12.6017345 111.520345,11.8759255 112.860635,11.8759255 C114.7432,11.8759255 115.842533,13.2308345 115.842533,15.2148436 L115.842533,19.8443618 C115.842533,20.1992891 115.586548,20.4734618 115.2702,20.4734618 C114.938823,20.4734618 114.683084,20.1992891 114.683084,19.8443618 L114.683084,15.5214164 C114.683084,13.9728436 113.899852,13.0050164 112.529504,13.0050164 C111.189214,13.0050164 110.19533,14.0533527 110.19533,15.6183709 L110.19533,19.8443618 C110.19533,20.1992891 109.954128,20.4734618 109.622997,20.4734618 C109.29162,20.4734618 109.035635,20.1992891 109.035635,19.8443618 L109.035635,12.6017345 Z" id="Fill-27" sketch:type="MSShapeGroup"></path>
                <path d="M129.19453,11.9537345 C128.749081,11.9537345 128.411791,12.2391982 128.268646,12.7364891 L126.829067,17.5422436 L125.37569,12.7521982 C125.225646,12.2522073 124.863226,11.9537345 124.406197,11.9537345 L124.303704,11.9537345 C123.846675,11.9537345 123.484255,12.2522073 123.334212,12.7521982 L121.895371,17.5405255 L120.470328,12.7521982 C120.318067,12.2445982 119.980777,11.9537345 119.54469,11.9537345 C118.963241,11.9537345 118.615849,12.4331073 118.615849,12.89628 C118.615849,13.0653982 118.6634,13.2774709 118.707009,13.4019164 L120.77953,19.68678 C120.953472,20.2621255 121.323777,20.5787618 121.821951,20.5787618 L121.880342,20.5787618 C122.36398,20.5787618 122.733299,20.2648255 122.89369,19.7184436 L124.347313,15.0170073 L125.786646,19.7174618 C125.947284,20.2648255 126.322023,20.5787618 126.814777,20.5787618 L126.873414,20.5787618 C127.356806,20.5787618 127.72711,20.2626164 127.915342,19.6882527 L130.017922,13.3383436 C130.044284,13.2536618 130.094052,13.0526345 130.094052,12.89628 C130.094052,12.3675709 129.698864,11.9537345 129.19453,11.9537345" id="Fill-29" sketch:type="MSShapeGroup"></path>
                <path d="M136.251625,16.8819464 L136.251625,17.3998555 C136.251625,18.3848645 135.41419,19.1001191 134.260407,19.1001191 C133.387741,19.1001191 132.823784,18.6352282 132.823784,17.9160464 L132.823784,17.8846282 C132.823784,17.0650555 133.475451,16.5756191 134.5669,16.5756191 C135.319828,16.5756191 135.892654,16.7383555 136.251625,16.8819464 M134.610755,11.9380009 C133.696451,11.9380009 132.94648,12.0845373 132.102886,12.4279282 C131.794914,12.5563009 131.579828,12.8903645 131.579828,13.2403827 C131.579828,13.7084645 131.943972,14.0891645 132.391639,14.0891645 C132.483538,14.0891645 132.5779,14.0734555 132.695422,14.0371282 C133.210842,13.81941 133.761001,13.7138645 134.37719,13.7138645 C135.58419,13.7138645 136.222306,14.3125282 136.222306,15.4453009 L136.222306,15.5552645 C135.730045,15.39351 135.106465,15.2376464 134.216552,15.2376464 C132.181726,15.2376464 130.966842,16.2562827 130.966842,17.9629282 L130.966842,17.9941009 C130.966842,19.7915645 132.41677,20.6101555 133.764204,20.6101555 C134.747494,20.6101555 135.588378,20.2360827 136.20777,19.5259827 L136.20777,19.6516555 C136.20777,20.1364282 136.615523,20.5161464 137.136364,20.5161464 C137.656958,20.5161464 138.064958,20.0883191 138.064958,19.5424282 L138.064958,15.4764736 C138.064958,14.3437009 137.778668,13.4706191 137.215451,12.8827555 C136.653712,12.2647009 135.752958,11.9380009 134.610755,11.9380009" id="Fill-31" sketch:type="MSShapeGroup"></path>
                <path d="M143.822587,11.9381236 C143.133225,11.9381236 142.405428,12.5534782 141.948152,13.4984782 L141.948152,12.9744327 C141.948152,12.4020327 141.527587,11.9538327 140.990239,11.9538327 C140.461514,11.9538327 140.047355,12.4020327 140.047355,12.9744327 L140.047355,19.5111327 C140.047355,20.0746964 140.461514,20.5162691 140.990239,20.5162691 C141.518471,20.5162691 141.948152,20.0653691 141.948152,19.5111327 L141.948152,17.07156 C141.948152,15.2851418 142.68063,14.1646418 144.011065,13.9159964 C144.469326,13.8249327 144.765717,13.4432509 144.765717,12.94326 C144.765717,12.3325691 144.395413,11.9381236 143.822587,11.9381236" id="Fill-33" sketch:type="MSShapeGroup"></path>
                <path d="M151.091245,15.5972127 L147.286448,15.5972127 C147.467042,14.3552127 148.216028,13.5574855 149.209665,13.5574855 C150.42381,13.5574855 150.974709,14.5974764 151.091245,15.5972127 M152.955825,16.0083491 C152.955825,14.0047036 151.648057,11.8753855 149.224201,11.8753855 C147.038593,11.8753855 145.390578,13.7528673 145.390578,16.2427582 L145.390578,16.2741764 C145.390578,18.7957309 147.082694,20.62584 149.413912,20.62584 C150.53123,20.62584 151.453665,20.2615855 152.236897,19.5097582 C152.331013,19.4091218 152.488694,19.1945945 152.488694,18.8855673 C152.488694,18.4106127 152.158549,18.0522491 151.720738,18.0522491 C151.495057,18.0522491 151.363738,18.1241673 151.223549,18.2410036 C150.687433,18.7139945 150.104999,18.94374 149.44323,18.94374 C148.316303,18.94374 147.502028,18.1943673 147.302462,16.9820673 L152.056303,16.9820673 C152.560883,16.9820673 152.955825,16.55424 152.955825,16.0083491" id="Fill-35" sketch:type="MSShapeGroup"></path>
            </g>
        </g>
    </g>
</svg>