<?xml version="1.0" encoding="UTF-8" standalone="no"?>
<svg width="472px" height="112px" viewBox="0 0 472 112" version="1.1" xmlns="http://www.w3.org/2000/svg" xmlns:xlink="http://www.w3.org/1999/xlink" xmlns:sketch="http://www.bohemiancoding.com/sketch/ns">
    <!-- Generator: Sketch 3.4.1 (15681) - http://www.bohemiancoding.com/sketch -->
    <title>Artboard 1</title>
    <desc>Created with Sketch.</desc>
    <defs></defs>
    <g id="Page-1" stroke="none" stroke-width="1" fill="none" fill-rule="evenodd" sketch:type="MSPage">
        <g id="Artboard-1" sketch:type="MSArtboardGroup" fill="#FFFFFF">
            <g id="logo" sketch:type="MSLayerGroup" transform="translate(21.000000, 31.000000)">
                <path d="M1.0961,45.468 C0.6681,45.139 0.2401,44.482 0.2401,43.628 C0.2401,42.445 1.1561,41.459 2.3181,41.459 C2.7461,41.459 3.1741,41.59 3.4801,41.853 C6.7191,44.219 10.0811,45.468 13.5041,45.468 C17.2941,45.468 20.0441,43.365 20.0441,40.078 L20.0441,39.947 C20.0441,36.53 16.3151,35.216 12.1591,33.967 C7.2081,32.455 1.7071,30.615 1.7071,24.372 L1.7071,24.24 C1.7071,18.392 6.2301,14.514 12.4651,14.514 C15.8271,14.514 19.4941,15.631 22.5501,17.406 C23.1621,17.8 23.7121,18.523 23.7121,19.509 C23.7121,20.692 22.7941,21.678 21.6331,21.678 C21.2061,21.678 20.8391,21.546 20.5941,21.415 C17.9051,19.772 15.0321,18.786 12.3421,18.786 C8.6141,18.786 6.2301,20.889 6.2301,23.715 L6.2301,23.846 C6.2301,27.067 10.1421,28.315 14.3591,29.696 C19.2501,31.273 24.5061,33.31 24.5061,39.422 L24.5061,39.553 C24.5061,45.993 19.5551,49.74 13.2591,49.74 C9.1031,49.74 4.5181,48.096 1.0961,45.468" id="Fill-13" sketch:type="MSShapeGroup"></path>
                <path d="M33.2461,3.3419 C33.2461,1.9619 34.2851,0.7789 35.5681,0.7789 C36.9131,0.7789 37.9531,1.9619 37.9531,3.3419 L37.9531,21.0199 C40.0311,17.3409 43.3311,14.3829 48.7711,14.3829 C56.4121,14.3829 60.8741,19.9029 60.8741,27.9869 L60.8741,46.8479 C60.8741,48.2929 59.8351,49.4109 58.5511,49.4109 C57.2061,49.4109 56.1681,48.2929 56.1681,46.8479 L56.1681,29.2349 C56.1681,22.9259 52.9891,18.9829 47.4271,18.9829 C41.9871,18.9829 37.9531,23.2549 37.9531,29.6299 L37.9531,46.8479 C37.9531,48.2929 36.9741,49.4109 35.6301,49.4109 C34.2851,49.4109 33.2461,48.2929 33.2461,46.8479 L33.2461,3.3419 Z" id="Fill-15" sketch:type="MSShapeGroup"></path>
                <path d="M94.064,30.221 C93.575,24.043 90.274,18.655 83.979,18.655 C78.477,18.655 74.321,23.584 73.71,30.221 L94.064,30.221 Z M84.712,49.871 C76.033,49.871 68.942,42.708 68.942,32.193 L68.942,32.061 C68.942,22.269 75.36,14.383 84.101,14.383 C93.453,14.383 98.771,22.598 98.771,31.601 C98.771,32.981 97.732,33.967 96.571,33.967 L73.71,33.967 C74.383,41.328 79.211,45.468 84.835,45.468 C88.747,45.468 91.619,43.825 93.942,41.525 C94.309,41.196 94.736,40.933 95.287,40.933 C96.448,40.933 97.365,41.919 97.365,43.102 C97.365,43.693 97.121,44.284 96.631,44.745 C93.636,47.834 90.091,49.871 84.712,49.871 L84.712,49.871 Z" id="Fill-17" sketch:type="MSShapeGroup"></path>
                <path d="M107.0826,17.3404 C107.0826,15.9594 108.1216,14.7774 109.4046,14.7774 C110.7496,14.7774 111.7896,15.8944 111.7896,17.3404 L111.7896,21.0204 C113.8676,17.3404 117.1676,14.3834 122.6076,14.3834 C130.2486,14.3834 134.7106,19.9034 134.7106,27.9864 L134.7106,46.8474 C134.7106,48.2934 133.6716,49.4104 132.3876,49.4104 C131.0426,49.4104 130.0046,48.2934 130.0046,46.8474 L130.0046,29.2354 C130.0046,22.9264 126.8256,18.9834 121.2636,18.9834 C115.8236,18.9834 111.7896,23.2544 111.7896,29.6304 L111.7896,46.8474 C111.7896,48.2934 110.8106,49.4104 109.4666,49.4104 C108.1216,49.4104 107.0826,48.2934 107.0826,46.8474 L107.0826,17.3404 Z" id="Fill-19" sketch:type="MSShapeGroup"></path>
                <path d="M142.9012,47.0449 L142.9012,46.9139 C142.9012,46.0589 143.2062,45.4019 143.8792,44.6139 L163.8672,19.3779 L145.4072,19.3779 C144.3072,19.3779 143.3902,18.4579 143.3902,17.2749 C143.3902,16.0919 144.3072,15.1059 145.4072,15.1059 L167.9612,15.1059 C169.2452,15.1059 170.2232,16.0259 170.2232,17.1439 L170.2232,17.2749 C170.2232,18.1289 169.9172,18.7859 169.2452,19.5749 L149.2582,44.8109 L168.5112,44.8109 C169.6122,44.8109 170.5292,45.7959 170.5292,46.9139 C170.5292,48.0959 169.6122,49.0819 168.5112,49.0819 L145.1622,49.0819 C143.9402,49.0819 142.9012,48.1619 142.9012,47.0449" id="Fill-21" sketch:type="MSShapeGroup"></path>
                <path d="M178.7199,3.3419 C178.7199,1.9619 179.7589,0.7789 181.0419,0.7789 C182.3869,0.7789 183.4269,1.9619 183.4269,3.3419 L183.4269,21.0199 C185.5049,17.3409 188.8049,14.3829 194.2449,14.3829 C201.8859,14.3829 206.3479,19.9029 206.3479,27.9869 L206.3479,46.8479 C206.3479,48.2929 205.3089,49.4109 204.0249,49.4109 C202.6799,49.4109 201.6419,48.2929 201.6419,46.8479 L201.6419,29.2349 C201.6419,22.9259 198.4629,18.9829 192.9009,18.9829 C187.4609,18.9829 183.4269,23.2549 183.4269,29.6299 L183.4269,46.8479 C183.4269,48.2929 182.4479,49.4109 181.1039,49.4109 C179.7589,49.4109 178.7199,48.2929 178.7199,46.8479 L178.7199,3.3419 Z" id="Fill-23" sketch:type="MSShapeGroup"></path>
                <path d="M239.537,30.221 C239.048,24.043 235.747,18.655 229.452,18.655 C223.95,18.655 219.794,23.584 219.183,30.221 L239.537,30.221 Z M230.185,49.871 C221.506,49.871 214.415,42.708 214.415,32.193 L214.415,32.061 C214.415,22.269 220.833,14.383 229.574,14.383 C238.926,14.383 244.244,22.598 244.244,31.601 C244.244,32.981 243.205,33.967 242.044,33.967 L219.183,33.967 C219.856,41.328 224.684,45.468 230.308,45.468 C234.22,45.468 237.092,43.825 239.415,41.525 C239.782,41.196 240.209,40.933 240.76,40.933 C241.921,40.933 242.838,41.919 242.838,43.102 C242.838,43.693 242.594,44.284 242.104,44.745 C239.109,47.834 235.564,49.871 230.185,49.871 L230.185,49.871 Z" id="Fill-25" sketch:type="MSShapeGroup"></path>
                <path d="M252.5564,17.3404 C252.5564,15.9594 253.5954,14.7774 254.8784,14.7774 C256.2234,14.7774 257.2634,15.8944 257.2634,17.3404 L257.2634,21.0204 C259.3414,17.3404 262.6414,14.3834 268.0814,14.3834 C275.7224,14.3834 280.1844,19.9034 280.1844,27.9864 L280.1844,46.8474 C280.1844,48.2934 279.1454,49.4104 277.8614,49.4104 C276.5164,49.4104 275.4784,48.2934 275.4784,46.8474 L275.4784,29.2354 C275.4784,22.9264 272.2994,18.9834 266.7374,18.9834 C261.2974,18.9834 257.2634,23.2544 257.2634,29.6304 L257.2634,46.8474 C257.2634,48.2934 256.2844,49.4104 254.9404,49.4104 C253.5954,49.4104 252.5564,48.2934 252.5564,46.8474 L252.5564,17.3404 Z" id="Fill-27" sketch:type="MSShapeGroup"></path>
                <path d="M334.3778,14.7004 C332.5698,14.7004 331.2008,15.8634 330.6198,17.8894 L324.7768,37.4684 L318.8778,17.9534 C318.2688,15.9164 316.7978,14.7004 314.9428,14.7004 L314.5268,14.7004 C312.6718,14.7004 311.2008,15.9164 310.5918,17.9534 L304.7518,37.4614 L298.9678,17.9534 C298.3498,15.8854 296.9808,14.7004 295.2108,14.7004 C292.8508,14.7004 291.4408,16.6534 291.4408,18.5404 C291.4408,19.2294 291.6338,20.0934 291.8108,20.6004 L300.2228,46.2054 C300.9288,48.5494 302.4318,49.8394 304.4538,49.8394 L304.6908,49.8394 C306.6538,49.8394 308.1528,48.5604 308.8038,46.3344 L314.7038,27.1804 L320.5458,46.3304 C321.1978,48.5604 322.7188,49.8394 324.7188,49.8394 L324.9568,49.8394 C326.9188,49.8394 328.4218,48.5514 329.1858,46.2114 L337.7198,20.3414 C337.8268,19.9964 338.0288,19.1774 338.0288,18.5404 C338.0288,16.3864 336.4248,14.7004 334.3778,14.7004" id="Fill-29" sketch:type="MSShapeGroup"></path>
                <path d="M363.0213,34.7783 L363.0213,36.8883 C363.0213,40.9013 359.6223,43.8153 354.9393,43.8153 C351.3973,43.8153 349.1083,41.9213 349.1083,38.9913 L349.1083,38.8633 C349.1083,35.5243 351.7533,33.5303 356.1833,33.5303 C359.2393,33.5303 361.5643,34.1933 363.0213,34.7783 M356.3613,14.6363 C352.6503,14.6363 349.6063,15.2333 346.1823,16.6323 C344.9323,17.1553 344.0593,18.5163 344.0593,19.9423 C344.0593,21.8493 345.5373,23.4003 347.3543,23.4003 C347.7273,23.4003 348.1103,23.3363 348.5873,23.1883 C350.6793,22.3013 352.9123,21.8713 355.4133,21.8713 C360.3123,21.8713 362.9023,24.3103 362.9023,28.9253 L362.9023,29.3733 C360.9043,28.7143 358.3733,28.0793 354.7613,28.0793 C346.5023,28.0793 341.5713,32.2293 341.5713,39.1823 L341.5713,39.3093 C341.5713,46.6323 347.4563,49.9673 352.9253,49.9673 C356.9163,49.9673 360.3293,48.4433 362.8433,45.5503 L362.8433,46.0623 C362.8433,48.0373 364.4983,49.5843 366.6123,49.5843 C368.7253,49.5843 370.3813,47.8413 370.3813,45.6173 L370.3813,29.0523 C370.3813,24.4373 369.2193,20.8803 366.9333,18.4853 C364.6533,15.9673 360.9973,14.6363 356.3613,14.6363" id="Fill-31" sketch:type="MSShapeGroup"></path>
                <path d="M393.7505,14.6368 C390.9525,14.6368 387.9985,17.1438 386.1425,20.9938 L386.1425,18.8588 C386.1425,16.5268 384.4355,14.7008 382.2545,14.7008 C380.1085,14.7008 378.4275,16.5268 378.4275,18.8588 L378.4275,45.4898 C378.4275,47.7858 380.1085,49.5848 382.2545,49.5848 C384.3985,49.5848 386.1425,47.7478 386.1425,45.4898 L386.1425,35.5508 C386.1425,28.2728 389.1155,23.7078 394.5155,22.6948 C396.3755,22.3238 397.5785,20.7688 397.5785,18.7318 C397.5785,16.2438 396.0755,14.6368 393.7505,14.6368" id="Fill-33" sketch:type="MSShapeGroup"></path>
                <path d="M423.2527,29.5442 L407.8097,29.5442 C408.5427,24.4842 411.5827,21.2342 415.6157,21.2342 C420.5437,21.2342 422.7797,25.4712 423.2527,29.5442 M430.8207,31.2192 C430.8207,23.0562 425.5127,14.3812 415.6747,14.3812 C406.8037,14.3812 400.1147,22.0302 400.1147,32.1742 L400.1147,32.3022 C400.1147,42.5752 406.9827,50.0312 416.4447,50.0312 C420.9797,50.0312 424.7237,48.5472 427.9027,45.4842 C428.2847,45.0742 428.9247,44.2002 428.9247,42.9412 C428.9247,41.0062 427.5847,39.5462 425.8077,39.5462 C424.8917,39.5462 424.3587,39.8392 423.7897,40.3152 C421.6137,42.2422 419.2497,43.1782 416.5637,43.1782 C411.9897,43.1782 408.6847,40.1252 407.8747,35.1862 L427.1697,35.1862 C429.2177,35.1862 430.8207,33.4432 430.8207,31.2192" id="Fill-35" sketch:type="MSShapeGroup"></path>
            </g>
        </g>
    </g>
</svg>